<svg width="272" height="78" viewBox="0 0 272 78" fill="none" xmlns="http://www.w3.org/2000/svg">
<rect width="272" height="78" fill="black"/>
<path d="M58 38L61.1055 29.9375H64.9023L58.9375 44.0117L58.457 44.9375C57.5742 46.4766 56.2227 47.2461 54.4023 47.2461L53.1719 47.1992L53.1367 44.375C53.3242 44.4062 53.6289 44.4219 54.0508 44.4219C54.543 44.4219 54.9375 44.3359 55.2344 44.1641C55.5391 43.9922 55.793 43.6758 55.9961 43.2148L56.4297 42.1016L50.4414 29.9375H54.2266L58 38ZM72.707 38.0586C72.707 37.6133 72.5586 37.2695 72.2617 37.0273C71.9727 36.7773 71.5586 36.6523 71.0195 36.6523C70.4648 36.6523 70.0117 36.7695 69.6602 37.0039C69.3164 37.2305 69.1445 37.5547 69.1445 37.9766H65.7578C65.7578 36.8281 66.2344 35.8945 67.1875 35.1758C68.1406 34.457 69.3594 34.0977 70.8438 34.0977C72.4766 34.0977 73.7578 34.418 74.6875 35.0586C75.625 35.6992 76.0938 36.6094 76.0938 37.7891C76.0938 38.3516 75.9219 38.8711 75.5781 39.3477C75.2422 39.8164 74.7656 40.1914 74.1484 40.4727C75.5938 40.9805 76.3164 41.9609 76.3164 43.4141C76.3164 44.5781 75.8164 45.5078 74.8164 46.2031C73.8242 46.8906 72.5 47.2344 70.8438 47.2344C69.3047 47.2344 68.0391 46.875 67.0469 46.1562C66.0547 45.4375 65.5586 44.4688 65.5586 43.25H68.9453C68.9453 43.6797 69.1367 44.0273 69.5195 44.293C69.9023 44.5586 70.4023 44.6914 71.0195 44.6914C71.6211 44.6914 72.0898 44.5508 72.4258 44.2695C72.7617 43.9883 72.9297 43.6211 72.9297 43.168C72.9297 42.6133 72.7695 42.2188 72.4492 41.9844C72.1289 41.7422 71.6484 41.6211 71.0078 41.6211H69.168V39.418H71.125C72.1797 39.3867 72.707 38.9336 72.707 38.0586ZM89.3711 47H85.9727V42.125H81.7656V47H78.3789V34.3203H81.7656V39.4062H85.9727V34.3203H89.3711V47ZM99.3438 47C99.1875 46.6953 99.0742 46.3164 99.0039 45.8633C98.1836 46.7773 97.1172 47.2344 95.8047 47.2344C94.5625 47.2344 93.5312 46.875 92.7109 46.1562C91.8984 45.4375 91.4922 44.5312 91.4922 43.4375C91.4922 42.0938 91.9883 41.0625 92.9805 40.3438C93.9805 39.625 95.4219 39.2617 97.3047 39.2539H98.8633V38.5273C98.8633 37.9414 98.7109 37.4727 98.4062 37.1211C98.1094 36.7695 97.6367 36.5938 96.9883 36.5938C96.418 36.5938 95.9688 36.7305 95.6406 37.0039C95.3203 37.2773 95.1602 37.6523 95.1602 38.1289H91.7734C91.7734 37.3945 92 36.7148 92.4531 36.0898C92.9062 35.4648 93.5469 34.9766 94.375 34.625C95.2031 34.2656 96.1328 34.0859 97.1641 34.0859C98.7266 34.0859 99.9648 34.4805 100.879 35.2695C101.801 36.0508 102.262 37.1523 102.262 38.5742V44.0703C102.27 45.2734 102.438 46.1836 102.766 46.8008V47H99.3438ZM96.543 44.6445C97.043 44.6445 97.5039 44.5352 97.9258 44.3164C98.3477 44.0898 98.6602 43.7891 98.8633 43.4141V41.2344H97.5977C95.9023 41.2344 95 41.8203 94.8906 42.9922L94.8789 43.1914C94.8789 43.6133 95.0273 43.9609 95.3242 44.2344C95.6211 44.5078 96.0273 44.6445 96.543 44.6445ZM115.199 37.0391H111.133V47H107.734V37.0391H103.738V34.3203H115.199V37.0391ZM120.531 38.0352H122.957C124.051 38.0352 125.012 38.2188 125.84 38.5859C126.668 38.9531 127.301 39.4805 127.738 40.168C128.184 40.8477 128.406 41.6406 128.406 42.5469C128.406 43.8828 127.91 44.9609 126.918 45.7812C125.934 46.5938 124.59 47 122.887 47H117.133V34.3203H120.531V38.0352ZM120.531 40.7539V44.293H122.934C123.605 44.293 124.121 44.1367 124.48 43.8242C124.84 43.5117 125.02 43.0859 125.02 42.5469C125.02 42 124.844 41.5664 124.492 41.2461C124.141 40.918 123.621 40.7539 122.934 40.7539H120.531ZM142.586 35.0234C144.211 35.0234 145.508 35.5625 146.477 36.6406C147.445 37.7188 147.93 39.1836 147.93 41.0352V41.1992C147.93 43.0273 147.391 44.4922 146.312 45.5938C145.234 46.6953 143.785 47.2461 141.965 47.2461C140.137 47.2461 138.68 46.6523 137.594 45.4648C136.516 44.2695 135.977 42.6484 135.977 40.6016V40.0391C135.992 37.1875 136.473 34.957 137.418 33.3477C138.371 31.7305 139.801 30.7109 141.707 30.2891C142.707 30.0703 143.352 29.8555 143.641 29.6445C143.93 29.4258 144.074 29.125 144.074 28.7422H146.816C146.816 29.9688 146.484 30.8906 145.82 31.5078C145.164 32.125 143.992 32.6016 142.305 32.9375C141.305 33.1406 140.516 33.5352 139.938 34.1211C139.359 34.707 138.969 35.5312 138.766 36.5938C139.844 35.5469 141.117 35.0234 142.586 35.0234ZM141.941 37.7656C141.137 37.7656 140.504 38.0352 140.043 38.5742C139.59 39.1133 139.363 39.9883 139.363 41.1992C139.363 42.2773 139.586 43.1016 140.031 43.6719C140.477 44.2344 141.121 44.5156 141.965 44.5156C142.785 44.5156 143.418 44.2383 143.863 43.6836C144.309 43.1289 144.535 42.3125 144.543 41.2344V40.9531C144.543 39.9141 144.312 39.125 143.852 38.5859C143.398 38.0391 142.762 37.7656 141.941 37.7656ZM149.43 40.543C149.43 39.2852 149.672 38.1641 150.156 37.1797C150.641 36.1953 151.336 35.4336 152.242 34.8945C153.156 34.3555 154.215 34.0859 155.418 34.0859C157.129 34.0859 158.523 34.6094 159.602 35.6562C160.688 36.7031 161.293 38.125 161.418 39.9219L161.441 40.7891C161.441 42.7344 160.898 44.2969 159.812 45.4766C158.727 46.6484 157.27 47.2344 155.441 47.2344C153.613 47.2344 152.152 46.6484 151.059 45.4766C149.973 44.3047 149.43 42.7109 149.43 40.6953V40.543ZM152.816 40.7891C152.816 41.9922 153.043 42.9141 153.496 43.5547C153.949 44.1875 154.598 44.5039 155.441 44.5039C156.262 44.5039 156.902 44.1914 157.363 43.5664C157.824 42.9336 158.055 41.9258 158.055 40.543C158.055 39.3633 157.824 38.4492 157.363 37.8008C156.902 37.1523 156.254 36.8281 155.418 36.8281C154.59 36.8281 153.949 37.1523 153.496 37.8008C153.043 38.4414 152.816 39.4375 152.816 40.7891ZM174.367 34.3203V47H170.98V37.0625H167.992L167.781 40.9766C167.648 43.0625 167.238 44.582 166.551 45.5352C165.863 46.4883 164.84 46.9766 163.48 47H162.332L162.297 44.2461L162.719 44.2109C163.328 44.1641 163.773 43.8047 164.055 43.1328C164.336 42.4609 164.512 41.3164 164.582 39.6992L164.816 34.3203H174.367ZM180.602 38.0352H183.027C184.121 38.0352 185.082 38.2188 185.91 38.5859C186.738 38.9531 187.371 39.4805 187.809 40.168C188.254 40.8477 188.477 41.6406 188.477 42.5469C188.477 43.8828 187.98 44.9609 186.988 45.7812C186.004 46.5938 184.66 47 182.957 47H177.203V34.3203H180.602V38.0352ZM180.602 40.7539V44.293H183.004C183.676 44.293 184.191 44.1367 184.551 43.8242C184.91 43.5117 185.09 43.0859 185.09 42.5469C185.09 42 184.914 41.5664 184.562 41.2461C184.211 40.918 183.691 40.7539 183.004 40.7539H180.602ZM193.773 34.3203V44.2695H197.254V34.3203H200.652V44.2695H204.133V34.3203H207.52V47H190.387V34.3203H193.773ZM216.074 47.2344C214.215 47.2344 212.699 46.6641 211.527 45.5234C210.363 44.3828 209.781 42.8633 209.781 40.9648V40.6367C209.781 39.3633 210.027 38.2266 210.52 37.2266C211.012 36.2188 211.707 35.4453 212.605 34.9062C213.512 34.3594 214.543 34.0859 215.699 34.0859C217.434 34.0859 218.797 34.6328 219.789 35.7266C220.789 36.8203 221.289 38.3711 221.289 40.3789V41.7617H213.215C213.324 42.5898 213.652 43.2539 214.199 43.7539C214.754 44.2539 215.453 44.5039 216.297 44.5039C217.602 44.5039 218.621 44.0312 219.355 43.0859L221.02 44.9492C220.512 45.668 219.824 46.2305 218.957 46.6367C218.09 47.0352 217.129 47.2344 216.074 47.2344ZM215.688 36.8281C215.016 36.8281 214.469 37.0547 214.047 37.5078C213.633 37.9609 213.367 38.6094 213.25 39.4531H217.961V39.1836C217.945 38.4336 217.742 37.8555 217.352 37.4492C216.961 37.0352 216.406 36.8281 215.688 36.8281Z" fill="#F8F200"/>
</svg>
